<svg width="512" height="512" viewBox="0 0 512 512" fill="none" xmlns="http://www.w3.org/2000/svg">
  <rect width="512" height="512" fill="white" />
  <path fill-rule="evenodd" clip-rule="evenodd"
    d="M222.586 137.855C193.186 121.871 156.742 125.945 132.498 145.628C126.944 150.137 126.468 157.88 131.435 162.923C136.402 167.965 144.931 168.397 150.486 163.888C166.173 151.152 189.745 148.554 208.722 158.872C213.355 161.391 217.35 164.476 220.679 167.964C225.558 173.076 234.079 173.629 239.711 169.199C245.342 164.769 245.951 157.034 241.071 151.921C235.894 146.497 229.702 141.725 222.586 137.855ZM250.781 181.254C272.439 148.424 319.311 137.749 355.473 157.41C366.878 163.611 375.882 172.114 382.158 181.879C385.914 187.722 383.743 195.222 377.306 198.632C370.872 202.042 362.609 200.07 358.853 194.227C354.809 187.937 349.015 182.453 341.611 178.427C318.232 165.717 287.933 172.618 273.932 193.841L172.09 348.222L249.812 359.659C257.166 360.742 262.163 367.031 260.971 373.709C259.778 380.387 252.848 384.922 245.494 383.841L148.136 369.513C143.72 368.863 139.946 366.27 138.06 362.587C136.174 358.906 136.421 354.614 138.719 351.13L250.781 181.254ZM319.617 241.711C317.631 252.84 306.082 260.4 293.824 258.595C281.565 256.792 273.239 246.308 275.225 235.179C277.213 224.05 288.76 216.49 301.02 218.294C313.278 220.098 321.605 230.582 319.617 241.711ZM201.088 224.272C199.101 235.401 187.552 242.961 175.293 241.157C163.034 239.353 154.707 228.869 156.694 217.739C158.681 206.61 170.23 199.051 182.489 200.855C194.748 202.658 203.075 213.143 201.088 224.272Z"
    fill="black" />
</svg>